# Blender v2.81 (sub 16) OBJ File: ''
# www.blender.org
mtllib score_4.mtl
o 0_Text.002
v -0.471000 -0.050000 -0.312000
v -0.471000 -0.050000 -0.224000
v -0.398000 -0.050000 -0.224000
v -0.398000 -0.050000 0.000000
v -0.300000 -0.050000 0.000000
v -0.300000 -0.050000 -0.224000
v -0.011000 -0.050000 -0.224000
v -0.011000 -0.050000 -0.269000
v -0.356000 -0.050000 -0.691000
v -0.398000 -0.050000 -0.691000
v -0.398000 -0.050000 -0.312000
v -0.300000 -0.050000 -0.312000
v -0.300000 -0.050000 -0.506000
v -0.298000 -0.050000 -0.506000
v -0.142000 -0.050000 -0.312000
v -0.471000 0.050000 -0.312000
v -0.471000 0.050000 -0.224000
v -0.398000 0.050000 -0.224000
v -0.398000 0.050000 0.000000
v -0.300000 0.050000 0.000000
v -0.300000 0.050000 -0.224000
v -0.011000 0.050000 -0.224000
v -0.011000 0.050000 -0.269000
v -0.356000 0.050000 -0.691000
v -0.398000 0.050000 -0.691000
v -0.398000 0.050000 -0.312000
v -0.300000 0.050000 -0.312000
v -0.300000 0.050000 -0.506000
v -0.298000 0.050000 -0.506000
v -0.142000 0.050000 -0.312000
v -0.471000 0.050000 -0.312000
v -0.471000 -0.050000 -0.312000
v -0.471000 0.050000 -0.224000
v -0.471000 -0.050000 -0.224000
v -0.398000 0.050000 -0.224000
v -0.398000 -0.050000 -0.224000
v -0.398000 0.050000 0.000000
v -0.398000 -0.050000 0.000000
v -0.300000 0.050000 0.000000
v -0.300000 -0.050000 0.000000
v -0.300000 0.050000 -0.224000
v -0.300000 -0.050000 -0.224000
v -0.011000 0.050000 -0.224000
v -0.011000 -0.050000 -0.224000
v -0.011000 0.050000 -0.269000
v -0.011000 -0.050000 -0.269000
v -0.356000 0.050000 -0.691000
v -0.356000 -0.050000 -0.691000
v -0.398000 0.050000 -0.691000
v -0.398000 -0.050000 -0.691000
v -0.398000 0.050000 -0.312000
v -0.398000 -0.050000 -0.312000
v -0.300000 0.050000 -0.312000
v -0.300000 -0.050000 -0.312000
v -0.300000 0.050000 -0.506000
v -0.300000 -0.050000 -0.506000
v -0.298000 0.050000 -0.506000
v -0.298000 -0.050000 -0.506000
v -0.142000 0.050000 -0.312000
v -0.142000 -0.050000 -0.312000
vn -0.0000 -1.0000 0.0000
vn 0.0000 0.0000 1.0000
vn 0.0000 1.0000 -0.0000
vn -1.0000 0.0000 0.0000
vn -0.7071 0.0000 -0.7071
vn -0.7071 0.0000 0.7071
vn 0.7071 0.0000 0.7071
vn 0.9418 0.0000 -0.3360
vn 0.4284 0.0000 -0.9036
vn 0.7071 0.0000 -0.7071
vn -0.4321 0.0000 0.9018
vn -0.9018 0.0000 -0.4321
usemtl None
s off
f 8//1 10//1 9//1
f 8//1 14//1 10//1
f 14//1 13//1 10//1
f 13//1 11//1 10//1
f 8//1 15//1 14//1
f 12//1 11//1 13//1
f 8//1 12//1 15//1
f 8//1 11//1 12//1
f 8//1 1//1 11//1
f 8//1 2//1 1//1
f 7//1 2//1 8//1
f 6//2 2//2 7//2
f 5//1 3//1 6//1
f 3//2 2//2 6//2
f 5//1 4//1 3//1
f 25//3 23//3 24//3
f 29//3 23//3 25//3
f 28//3 29//3 25//3
f 26//3 28//3 25//3
f 30//3 23//3 29//3
f 26//3 27//3 28//3
f 27//3 23//3 30//3
f 26//3 23//3 27//3
f 16//3 23//3 26//3
f 17//3 23//3 16//3
f 17//3 22//3 23//3
f 17//4 21//4 22//4
f 18//3 20//3 21//3
f 17//2 18//2 21//2
f 19//3 20//3 18//3
s 1
f 32//5 34//6 33//6 31//5
f 34//6 36//6 35//6 33//6
f 36//6 38//6 37//6 35//6
f 38//6 40//7 39//7 37//6
f 40//7 42//7 41//7 39//7
f 42//7 44//7 43//7 41//7
f 44//7 46//8 45//8 43//7
f 46//8 48//9 47//9 45//8
f 48//9 50//5 49//5 47//9
f 50//5 52//5 51//5 49//5
f 52//5 32//5 31//5 51//5
f 54//10 56//7 55//7 53//10
f 56//7 58//11 57//11 55//7
f 58//11 60//12 59//12 57//11
f 60//12 54//10 53//10 59//12
